Coordinates
version=1
nRows=19
nColumns=63
inDegrees=yes

Units are S.I. units (second, meters, Newtons, ...)
If the header above contains a line with 'inDegrees', this indicates whether rotational values are in degrees (yes) or radians (no).

endheader
time	pelvis_tilt	pelvis_list	pelvis_rotation	pelvis_tx	pelvis_ty	pelvis_tz	hip_flexion_r	hip_adduction_r	hip_rotation_r	knee_angle_r	knee_angle_r_beta	ankle_angle_r	subtalar_angle_r	mtp_angle_r	hip_flexion_l	hip_adduction_l	hip_rotation_l	knee_angle_l	knee_angle_l_beta	ankle_angle_l	subtalar_angle_l	mtp_angle_l	L5_S1_Flex_Ext	L5_S1_Lat_Bending	L5_S1_axial_rotation	L4_L5_Flex_Ext	L4_L5_Lat_Bending	L4_L5_axial_rotation	L3_L4_Flex_Ext	L3_L4_Lat_Bending	L3_L4_axial_rotation	L2_L3_Flex_Ext	L2_L3_Lat_Bending	L2_L3_axial_rotation	L1_L2_Flex_Ext	L1_L2_Lat_Bending	L1_L2_axial_rotation	L1_T12_Flex_Ext	L1_T12_Lat_Bending	L1_T12_axial_rotation	Abs_r3	Abs_r2	Abs_r1	Abs_t1	Abs_t2	neck_flexion	neck_bending	neck_rotation	arm_flex_r	arm_add_r	arm_rot_r	elbow_flex_r	pro_sup_r	wrist_flex_r	wrist_dev_r	arm_flex_l	arm_add_l	arm_rot_l	elbow_flex_l	pro_sup_l	wrist_flex_l	wrist_dev_l
0.000000	-2.119720	-3.820762	94.298936	0.247347	0.485464	1.109438	6.057676	-3.998368	-14.553696	20.150071	0.351685	31.253555	16.015707	0.000000	2.931780	2.347000	4.075818	3.976389	0.069401	25.894947	-13.683416	0.000000	0.265598	-0.076077	0.693465	0.493242	-0.101182	0.736807	0.436351	-0.184973	0.736807	0.303552	-0.184973	0.606782	0.246634	-0.155136	0.563441	0.151763	-0.117843	0.520099	1.897138	-0.860597	3.856846	0.000000	0.000000	24.262202	-0.579343	0.076930	13.474998	-14.782536	69.792870	46.907351	88.555357	-13.086567	-5.603745	12.333877	-12.092404	64.491665	47.242740	55.618894	-1.461798	-4.944141
0.016667	-2.071255	-3.717182	94.634054	0.246751	0.486605	1.108436	5.758558	-3.886762	-14.512790	19.651525	0.342984	31.182139	16.276576	0.000000	2.447626	2.316504	4.987645	3.127580	0.054587	25.431364	-14.209114	0.000000	0.244699	-0.065703	0.638862	0.454431	-0.087385	0.678791	0.402017	-0.159751	0.678791	0.279667	-0.159751	0.559005	0.227228	-0.133982	0.519076	0.139821	-0.101774	0.479147	1.747863	-0.743247	3.553161	0.000000	0.000000	24.394802	-0.496424	0.506521	12.984996	-14.712457	68.450115	46.840962	88.287936	-12.520525	-5.825144	12.221254	-11.826536	64.319026	46.748276	55.827904	-1.235276	-5.042300
0.033333	-2.030575	-3.612202	94.978972	0.246225	0.487543	1.107511	5.452026	-3.783595	-14.553093	19.211209	0.335299	31.109941	16.466503	0.000000	2.032895	2.287682	5.750780	2.482883	0.043334	25.066267	-14.653092	0.000000	0.227436	-0.058254	0.582038	0.422372	-0.077477	0.618415	0.373655	-0.141638	0.618415	0.259937	-0.141638	0.509283	0.211198	-0.118791	0.472906	0.129957	-0.090235	0.436529	1.624556	-0.658978	3.237121	0.000000	0.000000	24.483330	-0.420112	0.841235	12.599586	-14.634007	67.484472	46.778974	88.101358	-12.014950	-5.881216	12.119085	-11.631140	64.214118	46.352041	55.860503	-1.015777	-5.098882
0.050000	-1.997039	-3.506909	95.331320	0.245762	0.488295	1.106662	5.141196	-3.688757	-14.666616	18.825145	0.328561	31.038669	16.593229	0.000000	1.684677	2.260729	6.376802	2.026953	0.035377	24.792711	-15.019543	0.000000	0.213504	-0.053443	0.523480	0.396498	-0.071079	0.556197	0.350765	-0.129942	0.556197	0.244013	-0.129942	0.458045	0.198260	-0.108981	0.425327	0.121996	-0.082784	0.392610	1.525036	-0.604560	2.911437	0.000000	0.000000	24.532471	-0.350140	1.089482	12.307348	-14.548762	66.851494	46.721722	87.985569	-11.563633	-5.791362	12.023975	-11.498574	64.160394	46.045984	55.759375	-0.804989	-5.117242
0.066667	-1.970008	-3.402388	95.688729	0.245358	0.488878	1.105886	4.829183	-3.602139	-14.845373	18.489356	0.322700	30.970032	16.664494	0.000000	1.400065	2.235843	6.877289	1.744448	0.030446	24.603749	-15.312662	0.000000	0.202596	-0.050986	0.463675	0.376240	-0.067811	0.492655	0.332844	-0.123967	0.492655	0.231547	-0.123967	0.405716	0.188130	-0.103970	0.376736	0.115763	-0.078977	0.347756	1.447121	-0.576763	2.578823	0.000000	0.000000	24.546914	-0.286242	1.259677	12.096859	-14.458298	66.506734	46.669540	87.930517	-11.160364	-5.574983	11.932529	-11.421199	64.141307	45.822056	55.567198	-0.604596	-5.100736
0.083333	-1.948839	-3.299722	96.048829	0.245005	0.489310	1.105182	4.519103	-3.523631	-15.081377	18.199864	0.317648	30.905740	16.688037	0.000000	1.176150	2.213219	7.263819	1.620024	0.028275	24.492434	-15.536643	0.000000	0.194407	-0.050596	0.403112	0.361033	-0.067293	0.428307	0.319391	-0.123019	0.428307	0.222187	-0.123019	0.352723	0.180526	-0.103176	0.327529	0.111084	-0.078373	0.302334	1.388628	-0.572353	2.241990	0.000000	0.000000	24.531345	-0.228152	1.360230	11.956696	-14.364192	66.405744	46.622762	87.926150	-10.798932	-5.251480	11.841353	-11.391372	64.140312	45.672209	55.326654	-0.416287	-5.052721
0.100000	-1.932894	-3.199999	96.409251	0.244699	0.489608	1.104550	4.214070	-3.453125	-15.366641	17.952691	0.313334	30.847501	16.671599	0.000000	1.010023	2.193053	7.547969	1.638339	0.028594	24.451820	-15.695678	0.000000	0.188632	-0.051988	0.342279	0.350308	-0.069144	0.363671	0.309903	-0.126404	0.363671	0.215587	-0.126404	0.299494	0.175163	-0.106014	0.278101	0.107784	-0.080530	0.256709	1.347376	-0.588102	1.903652	0.000000	0.000000	24.490452	-0.175602	1.399554	11.875438	-14.268017	66.504077	46.581722	87.962413	-10.473128	-4.840255	11.747052	-11.401453	64.140860	45.588393	55.080424	-0.241747	-4.976552
0.116667	-1.921532	-3.104302	96.767626	0.244431	0.489791	1.103986	3.917200	-3.390509	-15.693176	17.743861	0.309689	30.797025	16.622920	0.000000	0.898775	2.175541	7.741319	1.784048	0.031138	24.474960	-15.793964	0.000000	0.184965	-0.054877	0.281662	0.343498	-0.072986	0.299266	0.303878	-0.133427	0.299266	0.211396	-0.133427	0.246454	0.171758	-0.111905	0.228850	0.105689	-0.085004	0.211247	1.321184	-0.620777	1.566520	0.000000	0.000000	24.428921	-0.128325	1.386060	11.841662	-14.171352	66.757286	46.546754	88.029255	-10.176741	-4.360707	11.646229	-11.443801	64.126406	45.562558	54.871188	-0.082664	-4.875586
0.133333	-1.914112	-3.013718	97.121585	0.244198	0.489875	1.103490	3.631608	-3.335675	-16.052997	17.569396	0.306644	30.756020	16.549740	0.000000	0.839499	2.160879	7.855445	2.041809	0.035636	24.554910	-15.835692	0.000000	0.183100	-0.058976	0.221750	0.340036	-0.078438	0.235609	0.300816	-0.143394	0.235609	0.209266	-0.143394	0.194031	0.170027	-0.120264	0.180172	0.104624	-0.091354	0.166312	1.307868	-0.667148	1.233306	0.000000	0.000000	24.351440	-0.086056	1.328162	11.843946	-14.075771	67.120924	46.518193	88.116623	-9.903563	-3.832240	11.535492	-11.510776	64.080403	45.586655	54.741626	0.059277	-4.753178
0.150000	-1.909994	-2.929330	97.468757	0.243991	0.489879	1.103060	3.360411	-3.288513	-16.438115	17.425318	0.304129	30.726195	16.459798	0.000000	0.829285	2.149264	7.901927	2.396278	0.041823	24.684721	-15.825057	0.000000	0.182734	-0.064000	0.163030	0.339355	-0.085120	0.173220	0.300213	-0.155610	0.173220	0.208846	-0.155610	0.142651	0.169686	-0.130509	0.132462	0.104414	-0.099136	0.122273	1.305248	-0.723983	0.906725	0.000000	0.000000	24.262696	-0.048527	1.234270	11.870868	-13.982851	67.550544	46.496374	88.214463	-9.647381	-3.274252	11.411444	-11.594735	63.986304	45.652635	54.734420	0.182389	-4.612684
0.166667	-1.908537	-2.852225	97.806774	0.243806	0.489819	1.102694	3.106723	-3.248914	-16.840543	17.307650	0.302075	30.709260	16.360835	0.000000	0.865225	2.140890	7.892341	2.832112	0.049430	24.857448	-15.766254	0.000000	0.183559	-0.069664	0.105990	0.340887	-0.092653	0.112615	0.301569	-0.169381	0.112615	0.209789	-0.169381	0.092742	0.170453	-0.142059	0.086117	0.104885	-0.107909	0.079493	1.311141	-0.788052	0.589487	0.000000	0.000000	24.167375	-0.015471	1.112796	11.911006	-13.894168	68.001698	46.481629	88.312723	-9.401988	-2.706146	11.270690	-11.688039	63.827562	45.752449	54.892249	0.284984	-4.457460
0.183333	-1.928944	-2.792187	98.158958	0.243608	0.489736	1.102390	2.878729	-3.246215	-17.305018	17.223335	0.300604	30.685875	16.277138	0.000000	0.964537	2.157286	7.875382	3.324137	0.058017	25.089450	-15.584477	0.000000	0.184150	-0.078480	0.047428	0.341984	-0.104378	0.050392	0.302539	-0.190816	0.050392	0.210465	-0.190816	0.041499	0.171001	-0.160036	0.038535	0.105223	-0.121565	0.035571	1.315362	-0.887779	0.263778	0.000000	0.000000	24.101704	0.028650	0.978575	11.924088	-13.800597	68.294644	46.479322	88.341625	-9.017097	-2.176061	11.045213	-11.783731	63.398440	45.900960	55.455804	0.443786	-4.217891
0.200000	-1.944078	-2.738701	98.504981	0.243398	0.489637	1.102127	2.670673	-3.241755	-17.767067	17.142324	0.299190	30.725766	16.217684	0.000000	1.101759	2.172905	7.825980	3.870310	0.067550	25.359751	-15.342333	0.000000	0.186452	-0.086408	-0.009262	0.346260	-0.114923	-0.009840	0.306322	-0.210093	-0.009840	0.213096	-0.210093	-0.008104	0.173140	-0.176204	-0.007525	0.106539	-0.133846	-0.006946	1.331810	-0.977467	-0.051510	0.000000	0.000000	24.007610	0.065547	0.831316	11.893334	-13.722905	68.421349	46.490025	88.324252	-8.673058	-1.723262	10.803614	-11.860272	62.897199	46.047325	56.318686	0.515566	-4.019339
0.216667	-1.962112	-2.712784	98.802060	0.243220	0.489493	1.101994	2.539113	-3.253234	-18.176851	17.112299	0.298666	30.832900	16.173039	0.000000	1.305731	2.203771	7.767624	4.475932	0.078120	25.636730	-15.156382	0.000000	0.190951	-0.094237	-0.058329	0.354615	-0.125335	-0.061975	0.313713	-0.229128	-0.061975	0.218238	-0.229128	-0.051038	0.177317	-0.192168	-0.047393	0.109109	-0.145973	-0.043747	1.363944	-1.066030	-0.324410	0.000000	0.000000	23.917914	0.100388	0.679949	11.875388	-13.665318	68.490431	46.518120	88.285895	-8.386204	-1.312266	10.565768	-11.925987	62.329490	46.204067	57.547248	0.516132	-3.839187
0.233333	-1.956153	-2.675555	99.063617	0.243041	0.489392	1.101894	2.409197	-3.235146	-18.523410	17.065406	0.297848	30.959297	16.117136	0.000000	1.512891	2.206328	7.664813	5.095636	0.088936	25.924826	-14.927679	0.000000	0.192420	-0.097931	-0.096994	0.357344	-0.130248	-0.103056	0.316128	-0.238109	-0.103056	0.219917	-0.238109	-0.084869	0.178682	-0.199700	-0.078807	0.109949	-0.151695	-0.072745	1.374440	-1.107811	-0.539449	0.000000	0.000000	23.842978	0.105103	0.509799	11.796902	-13.631249	68.339936	46.556961	88.227325	-8.071040	-0.979946	10.322111	-11.938367	61.673118	46.316114	59.230522	0.438659	-3.689571
0.250000	-1.928995	-2.651069	99.319127	0.242812	0.489307	1.101848	2.305498	-3.203527	-18.871615	17.013382	0.296940	31.092132	16.101825	0.000000	1.746485	2.193205	7.614975	5.717258	0.099785	26.185892	-14.770634	0.000000	0.193753	-0.097880	-0.134572	0.359819	-0.130181	-0.142982	0.318317	-0.237986	-0.142982	0.221441	-0.237986	-0.117750	0.179919	-0.199597	-0.109340	0.110711	-0.151616	-0.100929	1.383960	-1.107239	-0.748447	0.000000	0.000000	23.796509	0.099651	0.380668	11.699582	-13.617934	68.102670	46.608272	88.175846	-7.800266	-0.673188	10.074008	-11.918058	60.962834	46.411454	61.172879	0.327523	-3.561634
0.266667	-1.896840	-2.632234	99.522106	0.242616	0.489263	1.101833	2.220153	-3.166564	-19.149096	16.946290	0.295769	31.205589	16.107684	0.000000	1.979302	2.175794	7.489591	6.306452	0.110068	26.434531	-14.578974	0.000000	0.192782	-0.096278	-0.162139	0.358016	-0.128050	-0.172273	0.316722	-0.234091	-0.172273	0.220331	-0.234091	-0.141872	0.179017	-0.196330	-0.131738	0.110156	-0.149135	-0.121604	1.377023	-1.089118	-0.901770	0.000000	0.000000	23.793806	0.085344	0.261854	11.578551	-13.609513	67.764504	46.661441	88.142955	-7.523999	-0.369099	9.825017	-11.879065	60.218420	46.506077	63.275727	0.171333	-3.435902
0.283333	-1.852526	-2.624867	99.707086	0.242397	0.489268	1.101858	2.155617	-3.119790	-19.384275	16.866437	0.294375	31.269635	16.133917	0.000000	2.210531	2.148874	7.454435	6.839666	0.119375	26.609603	-14.548601	0.000000	0.190924	-0.091872	-0.188207	0.354566	-0.122190	-0.199970	0.313670	-0.223378	-0.199970	0.218207	-0.223378	-0.164681	0.177292	-0.187345	-0.152918	0.109094	-0.142310	-0.141155	1.363753	-1.039275	-1.046750	0.000000	0.000000	23.827251	0.065757	0.207885	11.457264	-13.606078	67.412249	46.693083	88.131425	-7.304969	-0.115720	9.584713	-11.815085	59.475614	46.575046	65.446384	0.024218	-3.350492
0.300000	-1.810725	-2.631025	99.835792	0.242230	0.489327	1.101898	2.113472	-3.073789	-19.529116	16.766837	0.292637	31.275069	16.177779	0.000000	2.425573	2.123010	7.418855	7.288208	0.127203	26.725048	-14.605450	0.000000	0.188477	-0.086696	-0.205828	0.350021	-0.115305	-0.218692	0.309649	-0.210792	-0.218692	0.215410	-0.210792	-0.180099	0.175020	-0.176790	-0.167235	0.107696	-0.134292	-0.154371	1.346273	-0.980720	-1.144752	0.000000	0.000000	23.892606	0.054211	0.225560	11.314819	-13.597424	67.003047	46.700893	88.151011	-7.125129	0.090114	9.359788	-11.738742	58.769417	46.624208	67.569391	-0.108703	-3.291012
